<?xml version="1.0" encoding="UTF-8" standalone="no"?>
<!-- Created with Inkscape (http://www.inkscape.org/) -->

<svg
   width="63.966637mm"
   height="63.966667mm"
   viewBox="0 0 63.966637 63.966667"
   version="1.1"
   id="svg1"
   xml:space="preserve"
   inkscape:version="1.3 (0e150ed6c4, 2023-07-21)"
   sodipodi:docname="sanocars.svg"
   inkscape:export-filename="sanocars.png"
   inkscape:export-xdpi="96"
   inkscape:export-ydpi="96"
   xmlns:inkscape="http://www.inkscape.org/namespaces/inkscape"
   xmlns:sodipodi="http://sodipodi.sourceforge.net/DTD/sodipodi-0.dtd"
   xmlns:xlink="http://www.w3.org/1999/xlink"
   xmlns="http://www.w3.org/2000/svg"
   xmlns:svg="http://www.w3.org/2000/svg"><sodipodi:namedview
     id="namedview1"
     pagecolor="#ffffff"
     bordercolor="#000000"
     borderopacity="0.25"
     inkscape:showpageshadow="2"
     inkscape:pageopacity="0.0"
     inkscape:pagecheckerboard="0"
     inkscape:deskcolor="#d1d1d1"
     inkscape:document-units="mm"
     inkscape:zoom="0.70710678"
     inkscape:cx="3230.7709"
     inkscape:cy="-2922.4723"
     inkscape:window-width="1366"
     inkscape:window-height="705"
     inkscape:window-x="-8"
     inkscape:window-y="-8"
     inkscape:window-maximized="1"
     inkscape:current-layer="layer1"
     showgrid="false" /><defs
     id="defs1"><linearGradient
       id="linearGradient13"
       inkscape:collect="always"><stop
         style="stop-color:#353832;stop-opacity:1;"
         offset="0.26189536"
         id="stop12" /><stop
         style="stop-color:#26292b;stop-opacity:1;"
         offset="0.83535981"
         id="stop13" /></linearGradient><linearGradient
       id="linearGradient3"
       inkscape:collect="always"><stop
         style="stop-color:#fc7b00;stop-opacity:1;"
         offset="0"
         id="stop3" /><stop
         style="stop-color:#f0d500;stop-opacity:1;"
         offset="0.52811784"
         id="stop5" /><stop
         style="stop-color:#fc7b00;stop-opacity:1;"
         offset="1"
         id="stop4" /></linearGradient><linearGradient
       inkscape:collect="always"
       xlink:href="#linearGradient13"
       id="linearGradient12"
       gradientUnits="userSpaceOnUse"
       x1="293.43964"
       y1="-1038.9301"
       x2="357.05811"
       y2="-839.24591"
       gradientTransform="matrix(0.7840543,0,0,2.1561658,-1168.8736,1907.2709)" /><filter
       inkscape:collect="always"
       style="color-interpolation-filters:sRGB"
       id="filter5-0-3-9-1-7"
       x="-0.0022869181"
       y="-0.013567959"
       width="1.0045738"
       height="1.0271359"><feGaussianBlur
         inkscape:collect="always"
         stdDeviation="0.19236183"
         id="feGaussianBlur5-8-2-4-2-5" /></filter><inkscape:path-effect
       effect="fillet_chamfer"
       id="path-effect4-3-1-7-3-7"
       is_visible="true"
       lpeversion="1"
       nodesatellites_param="F,0,0,1,0,0,0,1 @ F,0,0,1,0,0,0,1 @ F,0,0,1,0,0,0,1 @ F,0,0,1,0,0,0,1 @ F,0,0,1,0,0,0,1 @ F,0,0,1,0,0,0,1 @ F,0,0,1,0,0,0,1 @ F,0,0,1,0,0,0,1 @ F,0,0,1,0,0,0,1 @ F,0,0,1,0,0,0,1 @ F,0,0,1,0,1.8482547,0,1 @ F,0,0,1,0,0,0,1 @ F,0,0,1,0,0,0,1 @ F,0,0,1,0,0,0,1 @ F,0,0,1,0,0,0,1 @ F,0,0,1,0,0,0,1 @ F,0,0,1,0,0,0,1 @ F,0,0,1,0,0,0,1 @ F,0,0,1,0,0,0,1 @ F,0,0,1,0,0,0,1 @ F,0,0,1,0,0,0,1 @ F,0,0,1,0,0,0,1 @ F,0,0,1,0,0,0,1 @ F,0,0,1,0,0,0,1 @ F,0,0,1,0,0,0,1 @ F,0,0,1,0,0,0,1 @ F,0,0,1,0,0,0,1 @ F,0,1,1,0,1.8482547,0,1 @ F,0,0,1,0,0,0,1 @ F,0,0,1,0,0,0,1"
       radius="0"
       unit="px"
       method="auto"
       mode="F"
       chamfer_steps="1"
       flexible="false"
       use_knot_distance="true"
       apply_no_radius="true"
       apply_with_radius="true"
       only_selected="false"
       hide_knots="false" /><linearGradient
       inkscape:collect="always"
       xlink:href="#linearGradient3"
       id="linearGradient4-2-0-0-2-4"
       x1="-422.71625"
       y1="-136.52309"
       x2="-422.17679"
       y2="-103.89799"
       gradientUnits="userSpaceOnUse" /></defs><g
     inkscape:label="Capa 1"
     inkscape:groupmode="layer"
     id="layer1"
     transform="translate(1158.9001,-44.979106)"><g
       id="g13"
       transform="matrix(0.12793333,0,0,0.12793333,-1010.6381,95.007975)"
       inkscape:export-filename="sanocars\public\icon128.png"
       inkscape:export-xdpi="50.826496"
       inkscape:export-ydpi="50.826496"><rect
         style="opacity:0.989529;fill:url(#linearGradient12);stroke-width:7.61796"
         id="rect10-3"
         width="500"
         height="500"
         x="-1158.9"
         y="-391.05423"
         ry="250" /><path
         style="font-size:48.6091px;line-height:1.2;font-family:Aeros;-inkscape-font-specification:Aeros;white-space:pre;inline-size:512.119;fill:#868686;fill-opacity:0.768571;stroke-width:12.0563"
         d="m -1100.323,-89.918238 c -1.844,0 -3.373,-0.5162 -4.587,-1.54861 -1.2141,-1.03243 -1.968,-2.43358 -2.2617,-4.20347 -0.2937,-1.76987 -0.067,-3.70567 0.6786,-5.807392 1.1256,-3.17102 3.092,-5.88115 5.899,-8.13033 2.84,-2.24925 5.6594,-3.37383 8.4582,-3.37383 h 34.0805 c 0.2963,0 0.3856,0.16594 0.2678,0.49778 l -2.2775,6.41578 c -0.1176,0.33184 -0.3248,0.49777 -0.6212,0.49777 h -34.0804 c -1.0208,0 -2.0374,0.4056 -3.0497,1.2168 -1.0124,0.81118 -1.7215,1.78829 -2.1272,2.93133 -0.3927,1.10617 -0.3708,2.064882 0.066,2.876052 0.4364,0.8112 1.165,1.21678 2.1858,1.21678 h 24.9923 c 2.8318,0 4.8463,1.14306 6.0433,3.42915 1.2432,2.24921 1.3019,4.95931 0.1763,8.13036 -1.1257,3.17101 -3.1085,5.88111 -5.9484,8.13032 -2.8071,2.24922 -5.6265,3.37383 -8.4583,3.37383 h -34.0804 c -0.2964,0 -0.3857,-0.16595 -0.2679,-0.49777 l 2.2775,-6.41579 c 0.1177,-0.33187 0.3249,-0.49779 0.6213,-0.49779 h 34.1298 c 1.0208,0 2.0209,-0.40561 3.0003,-1.21678 1.0124,-0.81118 1.7149,-1.76985 2.1076,-2.87602 0.4057,-1.14308 0.3904,-2.12019 -0.046,-2.93138 -0.4036,-0.81119 -1.1157,-1.21679 -2.1365,-1.21679 z m 77.793,-21.846852 10.199,37.499172 h -7.4088 c -0.1646,0 -0.2898,-0.0183 -0.3755,-0.0554 -0.086,-0.0368 -0.1584,-0.11051 -0.2178,-0.22124 -0.059,-0.11051 -0.1158,-0.18435 -0.1683,-0.22122 -0.01,-0.0738 -0.027,-0.2028 -0.06,-0.38718 -0.034,-0.18435 -0.076,-0.29496 -0.1292,-0.33183 l -1.7732,-6.69235 h -30.8701 l -6.5739,6.69235 c -0.046,0.0368 -0.1511,0.14759 -0.3154,0.33183 -0.1641,0.18436 -0.2924,0.31343 -0.3844,0.38718 -0.046,0.0368 -0.138,0.11051 -0.2761,0.22122 -0.1379,0.11051 -0.2795,0.18437 -0.4243,0.22124 -0.1117,0.0368 -0.2336,0.0554 -0.3653,0.0554 h -7.4582 l 36.8221,-37.499172 c 0.8148,-0.8112 1.4033,-1.21678 1.7655,-1.21678 h 7.1618 c 0.3622,0 0.6463,0.40558 0.8523,1.21678 z m -23.5303,22.178722 h 21.5843 l -4.7108,-17.200952 -1.4489,1.43802 z m 76.14687,15.20983 h -0.049 l 0.02,-0.0554 -21.1741,-28.705122 -10.07197,28.373282 c -0.1177,0.33184 -0.3249,0.49777 -0.6212,0.49777 h -5.7295 c -0.2963,0 -0.3856,-0.16595 -0.2678,-0.49777 l 13.38997,-37.720412 c 0.1178,-0.33186 0.3249,-0.49777 0.6213,-0.49777 h 5.7294 c 0.099,0 0.1779,0.0554 0.2375,0.16595 h 0.049 l 21.1051,28.760422 10.0916,-28.428592 c 0.1177,-0.33183 0.3248,-0.49778 0.6212,-0.49778 h 5.7295 c 0.2963,0 0.3856,0.16595 0.2678,0.49778 l -13.3901,37.720422 c -0.1176,0.33185 -0.3248,0.49777 -0.6212,0.49777 h -5.7294 c -0.099,0 -0.168,-0.0368 -0.2077,-0.1105 z m 38.4048,-38.971922 c 3.1043,0.0722 11.1561,-0.46011 22.2373,0 9.7167,0.40346 9.874,6.37862 8.9491,11.20159 -3.8355,20.002522 -6.3564,28.310682 -21.8677,28.247512 l -22.5123,-0.0916 c -3.9516,0 -10.2392,-3.02452 -8.8918,-11.18162 1.5288,-7.2023 3.5377,-11.51227 4.3416,-15.141322 2.4135,-10.8935 9.878,-13.2178 17.7438,-13.03451 z m 9.2919,31.671192 c 9.5235,0.0999 8.6099,-2.88065 11.5566,-12.53445 2.3286,-7.629122 3.6095,-11.722952 -4.6394,-11.381072 -8.4878,0.0201 -9.948,-0.23706 -14.2355,-0.21471 -8.8548,0.0462 -10.2081,-0.65625 -12.5703,9.679762 -1.9677,8.60959 -5.5436,14.1837 2.4168,14.26719 z"
         id="text2-15-1-3-3-8-1"
         aria-label="SANO"
         sodipodi:nodetypes="sssscssssssssssscscsssssscscssccssscsccccssscsccsscccccccsccssssssscccsssssssscssssscssssscsssss" /><text
         xml:space="preserve"
         style="font-style:normal;font-variant:normal;font-weight:normal;font-stretch:normal;font-size:48.6091px;line-height:1.2;font-family:Aeros;-inkscape-font-specification:Aeros;white-space:pre;inline-size:512.119;display:inline;mix-blend-mode:normal;fill:#868686;fill-opacity:0.768571;stroke-width:11.2126;filter:url(#filter5-0-3-9-1-7)"
         x="-532.4082"
         y="-102.84313"
         id="text2-9-9-8-3-6-1-4"
         transform="matrix(1.0161047,0,-0.40390563,1.1378221,-401.72296,42.489812)"><tspan
           x="-532.4082"
           y="-102.84313"
           id="tspan1">CARS</tspan></text><path
         style="fill:#ffffff;fill-opacity:1;stroke-width:5.85901"
         d="m -104.96442,53.116224 c 0,0 -31.5489,-0.270913 -42.44367,29.006102 13.97402,-13.651322 21.54787,-15.821117 31.99607,-16.399759 6.96913,-0.385964 39.495198,0.414037 39.495198,0.414037 0,0 -16.602481,-3.646803 -28.390018,-4.065203 -8.56411,-0.303984 -14.54647,-1.100548 -22.31726,1.589341 0,0 8.96629,-4.981278 18.03222,-5.37978 9.06593,-0.398502 27.098159,0.89663 54.694443,0.797005 0,0 27.098157,-1.992512 32.179061,-6.077161 0,0 -30.485426,3.885398 -40.846486,1.793261 l 30.451516,-14.713331 c 0.919101,-0.444084 2.419204,-1.145125 3.376947,-1.497553 3.418629,-1.257977 11.751753,-3.735735 23.1573667,-3.16275 15.1880308,0.763002 36.8614633,4.230546 43.0382493,7.020062 0,0 -7.293579,2.994973 -11.309828,4.427725 -5.775449,2.060327 -6.124648,4.93708 -23.1606217,3.143819 0,0 10.4606857,5.280156 22.9138827,1.594009 0,0 9.265178,-2.68989 13.847955,-3.985023 4.582776,-1.295132 12.752074,1.095882 12.752074,1.095882 0,0 -9.663681,0.398502 -15.840467,4.881653 0,0 9.862932,-3.785772 24.906394,-1.295133 15.043462,2.49064 16.338594,0.896631 16.338594,0.896631 0,0 -9.564055,9.165553 -60.970852,7.272667 0,0 36.662212,6.07716 53.100432,2.092137 16.43822,-3.985023 18.729608,-8.169297 19.725864,-14.545334 0,0 -10.062183,3.686146 -21.020997,-0.199252 C 57.782834,43.934879 30.784303,34.868952 30.784303,34.868952 c 0,0 -13.05095,-4.682402 -27.9947869,-4.881654 -12.6927149,-0.169236 -19.6880411,-0.161348 -23.6441171,0.211137 -1.015994,0.09566 -2.651804,0.358698 -3.648672,0.577818 -2.346193,0.515715 -4.270134,1.332491 -10.465304,4.391575 -9.922048,4.899362 -30.094004,15.915919 -30.094004,15.915919"
         id="path3-6-6-9-4-5"
         sodipodi:nodetypes="ccscscsccccscsccsccsccscscsssc"
         inkscape:path-effect="#path-effect4-3-1-7-3-7"
         inkscape:original-d="m -104.96442,53.116224 c 0,0 -31.5489,-0.270913 -42.44367,29.006102 13.97402,-13.651322 21.54787,-15.821117 31.99607,-16.399759 6.96913,-0.385964 39.495198,0.414037 39.495198,0.414037 0,0 -16.602481,-3.646803 -28.390018,-4.065203 -8.56411,-0.303984 -14.54647,-1.100548 -22.31726,1.589341 0,0 8.96629,-4.981278 18.03222,-5.37978 9.06593,-0.398502 27.098159,0.89663 54.694443,0.797005 0,0 27.098157,-1.992512 32.179061,-6.077161 0,0 -30.485426,3.885398 -40.846486,1.793261 l 32.115695,-15.517416 c 0,0 9.727047,-4.616963 24.8701347,-3.856218 15.1880308,0.763002 36.8614633,4.230546 43.0382493,7.020062 0,0 -7.293579,2.994973 -11.309828,4.427725 -5.775449,2.060327 -6.124648,4.93708 -23.1606217,3.143819 0,0 10.4606857,5.280156 22.9138827,1.594009 0,0 9.265178,-2.68989 13.847955,-3.985023 4.582776,-1.295132 12.752074,1.095882 12.752074,1.095882 0,0 -9.663681,0.398502 -15.840467,4.881653 0,0 9.862932,-3.785772 24.906394,-1.295133 15.043462,2.49064 16.338594,0.896631 16.338594,0.896631 0,0 -9.564055,9.165553 -60.970852,7.272667 0,0 36.662212,6.07716 53.100432,2.092137 16.43822,-3.985023 18.729608,-8.169297 19.725864,-14.545334 0,0 -10.062183,3.686146 -21.020997,-0.199252 C 57.782834,43.934879 30.784303,34.868952 30.784303,34.868952 c 0,0 -13.05095,-4.682402 -27.9947869,-4.881654 -14.9438361,-0.199251 -21.9901471,-0.152978 -25.4770421,0.444775 -3.486895,0.597753 -4.607368,0.946603 -12.281051,4.735755 -9.922048,4.899362 -30.094004,15.915919 -30.094004,15.915919"
         transform="matrix(1.8397789,0,0,1.8397789,-861.48293,-257.93524)" /><path
         style="font-size:48.6091px;line-height:1.2;font-family:Aeros;-inkscape-font-specification:Aeros;white-space:pre;inline-size:512.119;fill:#ffffff;fill-opacity:1;stroke-width:12.0563"
         d="m -1099.7616,-94.154958 c -1.844,0 -3.373,-0.5162 -4.5871,-1.54864 -1.214,-1.03244 -1.9679,-2.43357 -2.2616,-4.20344 -0.2937,-1.769872 -0.067,-3.705682 0.6785,-5.807402 1.1257,-3.17103 3.092,-5.88115 5.8991,-8.13036 2.8399,-2.24921 5.6593,-3.37381 8.4582,-3.37381 h 34.0804 c 0.2964,0 0.3857,0.16594 0.2679,0.49779 l -2.2775,6.41578 c -0.1177,0.33184 -0.3249,0.49777 -0.6212,0.49777 h -34.0805 c -1.0207,0 -2.0373,0.4056 -3.0497,1.21681 -1.0123,0.81117 -1.7214,1.78828 -2.1272,2.93132 -0.3926,1.10617 -0.3707,2.06485 0.066,2.87602 0.4365,0.81121 1.1651,1.21681 2.1858,1.21681 h 24.9924 c 2.8318,0 4.8462,1.14305 6.0433,3.429142 1.2431,2.24921 1.3019,4.95932 0.1763,8.13035 -1.1257,3.17101 -3.1085,5.88113 -5.9485,8.13034 -2.807,2.24922 -5.6264,3.37382 -8.4582,3.37382 h -34.0805 c -0.2963,0 -0.3856,-0.16595 -0.2678,-0.49776 l 2.2775,-6.41581 c 0.1177,-0.33183 0.3249,-0.49775 0.6212,-0.49775 h 34.1298 c 1.0208,0 2.0209,-0.40562 3.0004,-1.2168 1.0123,-0.81119 1.7149,-1.76988 2.1075,-2.87604 0.4058,-1.14305 0.3904,-2.12016 -0.046,-2.93137 -0.4035,-0.81118 -1.1157,-1.21677 -2.1364,-1.21677 z m 77.7929,-21.846862 10.1991,37.499162 h -7.4088 c -0.1647,0 -0.2898,-0.0185 -0.3755,-0.0554 -0.086,-0.0368 -0.1584,-0.11051 -0.2178,-0.22124 -0.06,-0.11051 -0.1158,-0.18435 -0.1684,-0.22122 -0.01,-0.0738 -0.027,-0.2028 -0.06,-0.38717 -0.034,-0.18434 -0.076,-0.29497 -0.1291,-0.33183 l -1.7733,-6.69235 h -30.87 l -6.5739,6.69235 c -0.046,0.0367 -0.1511,0.14759 -0.3154,0.33183 -0.1641,0.18437 -0.2924,0.31342 -0.3844,0.38717 -0.046,0.0368 -0.138,0.11051 -0.2761,0.22122 -0.1379,0.11051 -0.2795,0.18437 -0.4243,0.22124 -0.1118,0.0368 -0.2336,0.0554 -0.3654,0.0554 h -7.4581 l 36.822,-37.499162 c 0.8148,-0.8112 1.4033,-1.21679 1.7656,-1.21679 h 7.1618 c 0.3622,0 0.6463,0.40559 0.8523,1.21679 z m -23.5302,22.178712 h 21.5843 l -4.7109,-17.200952 -1.4489,1.43802 z m 76.14677,15.20985 h -0.049 l 0.02,-0.0554 -21.1741,-28.705112 -10.07187,28.373262 c -0.1177,0.33185 -0.3249,0.49778 -0.6213,0.49778 h -5.7294 c -0.2964,0 -0.3856,-0.16595 -0.2679,-0.49778 l 13.39007,-37.720422 c 0.1177,-0.33184 0.3249,-0.49777 0.6212,-0.49777 h 5.7295 c 0.099,0 0.1779,0.0554 0.2374,0.16596 h 0.049 l 21.1051,28.760412 10.0916,-28.428572 c 0.1177,-0.33184 0.3249,-0.49777 0.6212,-0.49777 h 5.7295 c 0.2964,0 0.3856,0.16595 0.2678,0.49777 l -13.39,37.720422 c -0.1177,0.33184 -0.3249,0.49777 -0.6212,0.49777 h -5.7295 c -0.099,0 -0.168,-0.0367 -0.2077,-0.1105 z m 38.4049,-38.971922 c 3.1043,0.0722 11.1561,-0.46013 22.2373,0 9.7167,0.40343 9.8739,6.37859 8.9491,11.20159 -3.8355,20.002512 -6.3565,28.310682 -21.8678,28.247502 l -22.5122,-0.0916 c -3.9517,0 -10.2393,-3.02454 -8.8918,-11.18162 1.5287,-7.2023 3.5376,-11.512262 4.3416,-15.141332 2.4134,-10.89349 9.8779,-13.21776 17.7438,-13.03448 z m 9.2918,31.671202 c 9.5236,0.0999 8.61,-2.88069 11.5566,-12.53447 2.3287,-7.629132 3.6095,-11.722982 -4.6394,-11.381062 -8.4877,0.0201 -9.948,-0.23707 -14.2355,-0.21471 -8.8548,0.0462 -10.2081,-0.65627 -12.5703,9.67974 -1.9676,8.609602 -5.5435,14.183682 2.4169,14.267202 z"
         id="text2-15-1-5-7-6"
         aria-label="SANO"
         sodipodi:nodetypes="sssscssssssssssscscsssssscscssccssscsccccssscsccsscccccccsccssssssscccsssssssscssssscssssscsssss" /><text
         xml:space="preserve"
         style="font-style:normal;font-variant:normal;font-weight:normal;font-stretch:normal;font-size:48.6091px;line-height:1.2;font-family:Aeros;-inkscape-font-specification:Aeros;white-space:pre;inline-size:512.119;display:inline;fill:url(#linearGradient4-2-0-0-2-4);stroke-width:11.2126"
         x="-532.4082"
         y="-102.84313"
         id="text2-9-8-7-9-9-3"
         transform="matrix(1.0161047,0,-0.40390563,1.1378221,-403.48032,38.822852)"><tspan
           x="-532.4082"
           y="-102.84313"
           id="tspan2">CARS</tspan></text></g></g></svg>
