<?xml version="1.0" encoding="UTF-8" standalone="no"?>
<!-- Created with Inkscape (http://www.inkscape.org/) -->

<svg
   width="128.42862mm"
   height="36.886967mm"
   viewBox="0 0 128.42862 36.886967"
   version="1.1"
   id="svg1"
   xml:space="preserve"
   xmlns:inkscape="http://www.inkscape.org/namespaces/inkscape"
   xmlns:sodipodi="http://sodipodi.sourceforge.net/DTD/sodipodi-0.dtd"
   xmlns:xlink="http://www.w3.org/1999/xlink"
   xmlns="http://www.w3.org/2000/svg"
   xmlns:svg="http://www.w3.org/2000/svg"><sodipodi:namedview
     id="namedview1"
     pagecolor="#ffffff"
     bordercolor="#000000"
     borderopacity="0.25"
     inkscape:showpageshadow="2"
     inkscape:pageopacity="0.0"
     inkscape:pagecheckerboard="0"
     inkscape:deskcolor="#d1d1d1"
     inkscape:document-units="mm" /><defs
     id="defs1"><linearGradient
       id="linearGradient2"
       inkscape:collect="always"><stop
         style="stop-color:#fc7b00;stop-opacity:1;"
         offset="0"
         id="stop2" /><stop
         style="stop-color:#f1d300;stop-opacity:1;"
         offset="0.50487804"
         id="stop3" /><stop
         style="stop-color:#fc7b00;stop-opacity:1;"
         offset="1"
         id="stop4" /></linearGradient><inkscape:path-effect
       effect="fillet_chamfer"
       id="path-effect4-3-1-7-3-3"
       is_visible="true"
       lpeversion="1"
       nodesatellites_param="F,0,0,1,0,0,0,1 @ F,0,0,1,0,0,0,1 @ F,0,0,1,0,0,0,1 @ F,0,0,1,0,0,0,1 @ F,0,0,1,0,0,0,1 @ F,0,0,1,0,0,0,1 @ F,0,0,1,0,0,0,1 @ F,0,0,1,0,0,0,1 @ F,0,0,1,0,0,0,1 @ F,0,0,1,0,0,0,1 @ F,0,0,1,0,1.8482547,0,1 @ F,0,0,1,0,0,0,1 @ F,0,0,1,0,0,0,1 @ F,0,0,1,0,0,0,1 @ F,0,0,1,0,0,0,1 @ F,0,0,1,0,0,0,1 @ F,0,0,1,0,0,0,1 @ F,0,0,1,0,0,0,1 @ F,0,0,1,0,0,0,1 @ F,0,0,1,0,0,0,1 @ F,0,0,1,0,0,0,1 @ F,0,0,1,0,0,0,1 @ F,0,0,1,0,0,0,1 @ F,0,0,1,0,0,0,1 @ F,0,0,1,0,0,0,1 @ F,0,0,1,0,0,0,1 @ F,0,0,1,0,0,0,1 @ F,0,1,1,0,1.8482547,0,1 @ F,0,0,1,0,0,0,1 @ F,0,0,1,0,0,0,1"
       radius="0"
       unit="px"
       method="auto"
       mode="F"
       chamfer_steps="1"
       flexible="false"
       use_knot_distance="true"
       apply_no_radius="true"
       apply_with_radius="true"
       only_selected="false"
       hide_knots="false" /><linearGradient
       inkscape:collect="always"
       xlink:href="#linearGradient2"
       id="linearGradient3"
       x1="-415.06552"
       y1="-139.59395"
       x2="-416.58624"
       y2="-98.346703"
       gradientUnits="userSpaceOnUse" /><filter
       inkscape:collect="always"
       style="color-interpolation-filters:sRGB"
       id="filter4"
       x="-0.0025165328"
       y="-0.014930226"
       width="1.0050331"
       height="1.0298605"><feGaussianBlur
         inkscape:collect="always"
         stdDeviation="0.21167565"
         id="feGaussianBlur4" /></filter><filter
       inkscape:collect="always"
       style="color-interpolation-filters:sRGB"
       id="filter5"
       x="-0.0053019922"
       y="-0.028800246"
       width="1.010604"
       height="1.0576005"><feGaussianBlur
         inkscape:collect="always"
         stdDeviation="0.13476487"
         id="feGaussianBlur5" /></filter></defs><g
     inkscape:label="Capa 1"
     inkscape:groupmode="layer"
     id="layer1"
     transform="translate(-236.17641,-37.511435)"><g
       id="g5"><path
         style="font-size:48.6091px;line-height:1.2;font-family:Aeros;-inkscape-font-specification:Aeros;white-space:pre;inline-size:512.119;fill:#868686;fill-opacity:0.768571;stroke-width:3.41556;filter:url(#filter5)"
         d="m 245.34356,69.53655 c -0.52238,0 -0.95555,-0.14627 -1.2995,-0.43864 -0.34394,-0.29251 -0.55752,-0.68948 -0.64074,-1.19087 -0.0832,-0.50139 -0.0191,-1.04986 0.19223,-1.6453 0.31891,-0.89835 0.87598,-1.66609 1.67123,-2.30334 0.80456,-0.63727 1.6033,-0.95582 2.39624,-0.95582 h 9.65505 c 0.0839,0 0.10931,0.0469 0.076,0.14086 l -0.6452,1.81761 c -0.0334,0.0939 -0.0921,0.14087 -0.17601,0.14087 h -9.65505 c -0.2892,0 -0.5772,0.11519 -0.86401,0.3446 -0.2868,0.22992 -0.48768,0.50665 -0.60263,0.83049 -0.11113,0.31344 -0.10496,0.58503 0.0185,0.81481 0.12373,0.22978 0.33006,0.34473 0.61922,0.34473 h 7.08041 c 0.80226,0 1.37296,0.32384 1.71207,0.97148 0.35218,0.63714 0.36882,1.40501 0.0499,2.30334 -0.31891,0.89836 -0.88064,1.66609 -1.68521,2.30338 -0.79524,0.63728 -1.59398,0.95583 -2.39624,0.95583 h -9.65507 c -0.0839,0 -0.1093,-0.0469 -0.076,-0.14086 l 0.64522,-1.81765 c 0.0334,-0.0939 0.0921,-0.14087 0.176,-0.14087 h 9.66906 c 0.28919,0 0.57251,-0.11519 0.84998,-0.34459 0.28682,-0.22993 0.48585,-0.5014 0.59709,-0.81484 0.11491,-0.32383 0.11057,-0.60069 -0.0126,-0.83049 -0.11421,-0.22976 -0.31609,-0.34473 -0.60526,-0.34473 z m 22.03896,-6.18924 2.88942,10.62368 h -2.09893 c -0.0467,0 -0.0821,0 -0.10637,-0.0157 -0.0242,-0.014 -0.0448,-0.0314 -0.0617,-0.0626 -0.0168,-0.0312 -0.0328,-0.0525 -0.0478,-0.0626 -10e-4,-0.0213 -0.007,-0.0569 -0.017,-0.10958 -0.01,-0.0525 -0.0217,-0.0839 -0.0367,-0.0939 l -0.50239,-1.89605 h -8.74555 l -1.86242,1.89605 c -0.0126,0.014 -0.0429,0.0413 -0.0894,0.0939 -0.0465,0.0525 -0.0828,0.0883 -0.10888,0.10958 -0.0126,0.014 -0.0391,0.0312 -0.0782,0.0626 -0.0391,0.0313 -0.0792,0.0526 -0.12009,0.0626 -0.0317,0.014 -0.0661,0.0157 -0.10342,0.0157 h -2.11292 l 10.43179,-10.62368 c 0.23082,-0.22977 0.39755,-0.34473 0.50016,-0.34473 h 2.02898 c 0.10271,0 0.1831,0.11519 0.24143,0.34473 z m -6.66618,6.28329 h 6.11486 l -1.33458,-4.87303 -0.41049,0.40735 z m 21.57259,4.30908 h -0.014 l 0.006,-0.0155 -5.99867,-8.13223 -2.85339,8.03834 c -0.0332,0.0939 -0.0921,0.14086 -0.17601,0.14086 h -1.62318 c -0.0839,0 -0.1093,-0.0469 -0.0758,-0.14086 l 3.79343,-10.68642 c 0.0332,-0.0939 0.0921,-0.14086 0.176,-0.14086 h 1.62317 c 0.028,0 0.0505,0.0155 0.0673,0.0469 h 0.014 l 5.97912,8.14786 2.85898,-8.05394 c 0.0332,-0.0939 0.0921,-0.14088 0.176,-0.14088 h 1.62316 c 0.0839,0 0.1093,0.047 0.0758,0.14088 l -3.79343,10.6864 c -0.0332,0.0939 -0.0921,0.14087 -0.17598,0.14087 h -1.62318 c -0.028,0 -0.0476,-0.014 -0.0589,-0.0312 z m 10.88019,-11.04097 c 0.87944,0.0199 3.16054,-0.13103 6.29987,0 2.75277,0.11379 2.79732,1.80707 2.53531,3.17352 -1.08661,5.66666 -1.80079,8.02054 -6.19518,8.00263 l -6.37778,-0.0256 c -1.11953,0 -2.9008,-0.85678 -2.51909,-3.16771 0.43312,-2.04043 1.00224,-3.26144 1.23001,-4.28968 0.68374,-3.08617 2.79846,-3.74462 5.02686,-3.6927 z m 2.6324,8.97249 c 2.69805,0.0285 2.43921,-0.81598 3.27402,-3.55098 0.65972,-2.16135 1.02257,-3.32119 -1.31435,-3.22432 -2.40461,0 -2.81832,-0.0668 -4.03294,-0.0612 -2.5086,0.014 -2.892,-0.18596 -3.56121,2.74228 -0.55743,2.43908 -1.57051,4.01821 0.6847,4.04198 z"
         id="text2-15-1-3-3-8-5"
         aria-label="SANO"
         sodipodi:nodetypes="sssscssssssssssscscsssssscscssccssscsccccssscsccsscccccccsccssssssscccsssssssscssssscssssscsssss"
         inkscape:export-filename="sanocars\public\logo485.svg"
         inkscape:export-xdpi="96"
         inkscape:export-ydpi="96" /><path
         d="m -513.20761,-136.8695 h 13.65916 13.70777 c 0.29165,0 0.43748,0.14583 0.43748,0.43748 v 5.63866 c 0,0.29165 -0.14583,0.43748 -0.43748,0.43748 h -27.36693 c -1.87955,0 -3.62948,0.46989 -5.24978,1.40966 -1.62031,0.93978 -2.90035,2.21982 -3.84012,3.84012 -0.93977,1.5879 -1.40966,3.33783 -1.40966,5.24978 0,2.88414 1.02079,5.36321 3.06237,7.4372 2.07399,2.04158 4.55305,3.06237 7.43719,3.06237 h 27.36693 c 0.29165,0 0.43748,0.14583 0.43748,0.43748 v 5.63866 c 0,0.29165 -0.14583,0.43748 -0.43748,0.43748 h -27.36693 c -3.07857,0 -5.93031,-0.76154 -8.5552,-2.28463 -2.59249,-1.52309 -4.65027,-3.58087 -6.17336,-6.17336 -1.52308,-2.62489 -2.28462,-5.47662 -2.28462,-8.5552 0,-3.07857 0.76154,-5.9141 2.28462,-8.50659 1.52309,-2.62489 3.58087,-4.69888 6.17336,-6.22196 2.62489,-1.52309 5.47663,-2.28463 8.5552,-2.28463 z m 63.04602,1.0694 23.13793,32.95697 h -7.29137 c -0.16203,0 -0.29165,-0.0162 -0.38887,-0.0486 -0.0972,-0.0324 -0.19444,-0.0972 -0.29165,-0.19444 -0.0972,-0.0972 -0.17824,-0.16202 -0.24305,-0.19443 -0.0324,-0.0648 -0.18373,-0.17822 -0.28096,-0.34027 -0.0972,-0.16203 -0.32131,-0.51036 -0.38612,-0.54276 l -3.85357,-5.63059 h -30.38068 l -4.13178,5.8817 c -0.0324,0.0324 -0.0972,0.12962 -0.19443,0.29165 -0.0972,0.16203 -0.17824,0.27546 -0.24305,0.34027 -0.0324,0.0324 -0.0972,0.0972 -0.19444,0.19443 -0.0972,0.0972 -0.21063,0.16203 -0.34026,0.19444 -0.0972,0.0324 -0.21064,0.0486 -0.34026,0.0486 h -7.33998 l 23.13793,-32.95697 c 0.5185,-0.71293 0.95598,-1.0694 1.31245,-1.0694 h 7.04832 c 0.35647,0 0.77775,0.35647 1.26384,1.0694 z m -15.40909,19.49225 h 21.24218 l -10.64539,-15.11743 -0.92358,1.26383 z m 76.80237,-0.14583 9.52738,13.61055 h -7.33997 c -0.12963,0 -0.25925,-0.0162 -0.38887,-0.0486 -0.0972,-0.0324 -0.19444,-0.0972 -0.29166,-0.19444 -0.0972,-0.0972 -0.17823,-0.16202 -0.24304,-0.19443 -0.0324,-0.0648 -0.0972,-0.17822 -0.19444,-0.34027 -0.0972,-0.16203 -0.16203,-0.25924 -0.19444,-0.29165 -0.84255,-1.19903 -1.74992,-2.49527 -2.72211,-3.88873 -0.97218,-1.39346 -2.00917,-2.88414 -3.11098,-4.47204 -1.10181,-1.58789 -1.99297,-2.86793 -2.6735,-3.84012 l -0.34026,-0.48609 h -19.44364 v 13.3189 c 0,0.29165 -0.14583,0.43748 -0.43748,0.43748 h -5.63866 c -0.29165,0 -0.43748,-0.14583 -0.43748,-0.43748 v -9.67321 -9.72182 -13.75638 c 0,-0.29165 0.14583,-0.43748 0.43748,-0.43748 h 34.26942 c 1.84715,0 3.54846,0.45368 5.10395,1.36105 1.55549,0.90737 2.78692,2.1388 3.69429,3.69429 0.90737,1.55549 1.36106,3.24061 1.36106,5.05535 0,1.29624 -0.24305,2.52767 -0.72914,3.69429 -0.45369,1.16662 -1.0856,2.20361 -1.89575,3.11098 -0.81015,0.87497 -1.78234,1.62031 -2.91655,2.23602 -1.10181,0.58331 -2.26842,0.93978 -3.49985,1.0694 z m -27.41553,-13.9022 v 7.24275 h 28.24189 c 1.00459,0 1.86335,-0.35647 2.57628,-1.0694 0.71293,-0.71293 1.0694,-1.55549 1.0694,-2.52767 0,-1.00459 -0.35647,-1.86335 -1.0694,-2.57628 -0.71293,-0.71293 -1.57169,-1.0694 -2.57628,-1.0694 z m 53.08114,13.75637 c -1.81474,0 -3.49985,-0.45368 -5.05534,-1.36105 -1.55549,-0.90737 -2.78693,-2.1388 -3.6943,-3.69429 -0.90737,-1.55549 -1.36105,-3.25681 -1.36105,-5.10396 0,-2.78692 0.98838,-5.16877 2.96515,-7.14554 2.00918,-1.97677 4.39103,-2.96515 7.14554,-2.96515 h 33.54028 c 0.29165,0 0.43748,0.14583 0.43748,0.43748 v 5.63866 c 0,0.29165 -0.14583,0.43748 -0.43748,0.43748 h -33.54028 c -1.00459,0 -1.86335,0.35647 -2.57628,1.0694 -0.71293,0.71293 -1.0694,1.57169 -1.0694,2.57628 0,0.97218 0.35647,1.81474 1.0694,2.52767 0.71293,0.71293 1.57169,1.0694 2.57628,1.0694 h 24.59621 c 2.78692,0 5.16876,1.00459 7.14553,3.01377 2.00918,1.97677 3.01377,4.35861 3.01377,7.14554 0,2.78692 -1.00459,5.16876 -3.01377,7.14553 -1.97677,1.97677 -4.35861,2.96516 -7.14553,2.96516 h -33.54028 c -0.29165,0 -0.43748,-0.14583 -0.43748,-0.43748 v -5.63866 c 0,-0.29165 0.14583,-0.43748 0.43748,-0.43748 h 33.58889 c 1.00459,0 1.84714,-0.35647 2.52767,-1.0694 0.71293,-0.71293 1.0694,-1.55549 1.0694,-2.52767 0,-1.00459 -0.35647,-1.86336 -1.0694,-2.57629 -0.68053,-0.71293 -1.52308,-1.0694 -2.52767,-1.0694 z"
         id="text2-9-9-8-3-6-1-7"
         style="-inkscape-font-specification:Aeros;fill:#868686;fill-opacity:0.768571;stroke-width:11.2126;filter:url(#filter4)"
         transform="matrix(0.28786493,0,-0.11442743,0.32234775,443.25869,107.04815)"
         aria-label="CARS"
         sodipodi:nodetypes="scsssssscscssssssccsccsccssscsccccssscsccssccccccccscscscsssccssssccsssssscccccccssssscsssscssssssssssscscsssssscscss" /><path
         style="fill:#ffffff;fill-opacity:1;stroke-width:5.85901"
         d="m -104.96442,53.116224 c 0,0 -31.5489,-0.270913 -42.44367,29.006102 13.97402,-13.651322 21.54787,-15.821117 31.99607,-16.399759 6.96913,-0.385964 39.495198,0.414037 39.495198,0.414037 0,0 -16.602481,-3.646803 -28.390018,-4.065203 -8.56411,-0.303984 -14.54647,-1.100548 -22.31726,1.589341 0,0 8.96629,-4.981278 18.03222,-5.37978 9.06593,-0.398502 27.098159,0.89663 54.694443,0.797005 0,0 27.098157,-1.992512 32.179061,-6.077161 0,0 -30.485426,3.885398 -40.846486,1.793261 l 30.451516,-14.713331 c 0.919101,-0.444084 2.419204,-1.145125 3.376947,-1.497553 3.418629,-1.257977 11.751753,-3.735735 23.1573667,-3.16275 15.1880308,0.763002 36.8614633,4.230546 43.0382493,7.020062 0,0 -7.293579,2.994973 -11.309828,4.427725 -5.775449,2.060327 -6.124648,4.93708 -23.1606217,3.143819 0,0 10.4606857,5.280156 22.9138827,1.594009 0,0 9.265178,-2.68989 13.847955,-3.985023 4.582776,-1.295132 12.752074,1.095882 12.752074,1.095882 0,0 -9.663681,0.398502 -15.840467,4.881653 0,0 9.862932,-3.785772 24.906394,-1.295133 15.043462,2.49064 16.338594,0.896631 16.338594,0.896631 0,0 -9.564055,9.165553 -60.970852,7.272667 0,0 36.662212,6.07716 53.100432,2.092137 16.43822,-3.985023 18.729608,-8.169297 19.725864,-14.545334 0,0 -10.062183,3.686146 -21.020997,-0.199252 C 57.782834,43.934879 30.784303,34.868952 30.784303,34.868952 c 0,0 -13.05095,-4.682402 -27.9947869,-4.881654 -12.6927149,-0.169236 -19.6880411,-0.161348 -23.6441171,0.211137 -1.015994,0.09566 -2.651804,0.358698 -3.648672,0.577818 -2.346193,0.515715 -4.270134,1.332491 -10.465304,4.391575 -9.922048,4.899362 -30.094004,15.915919 -30.094004,15.915919"
         id="path3-6-6-9-4-53"
         sodipodi:nodetypes="ccscscsccccscsccsccsccscscsssc"
         inkscape:path-effect="#path-effect4-3-1-7-3-3"
         inkscape:original-d="m -104.96442,53.116224 c 0,0 -31.5489,-0.270913 -42.44367,29.006102 13.97402,-13.651322 21.54787,-15.821117 31.99607,-16.399759 6.96913,-0.385964 39.495198,0.414037 39.495198,0.414037 0,0 -16.602481,-3.646803 -28.390018,-4.065203 -8.56411,-0.303984 -14.54647,-1.100548 -22.31726,1.589341 0,0 8.96629,-4.981278 18.03222,-5.37978 9.06593,-0.398502 27.098159,0.89663 54.694443,0.797005 0,0 27.098157,-1.992512 32.179061,-6.077161 0,0 -30.485426,3.885398 -40.846486,1.793261 l 32.115695,-15.517416 c 0,0 9.727047,-4.616963 24.8701347,-3.856218 15.1880308,0.763002 36.8614633,4.230546 43.0382493,7.020062 0,0 -7.293579,2.994973 -11.309828,4.427725 -5.775449,2.060327 -6.124648,4.93708 -23.1606217,3.143819 0,0 10.4606857,5.280156 22.9138827,1.594009 0,0 9.265178,-2.68989 13.847955,-3.985023 4.582776,-1.295132 12.752074,1.095882 12.752074,1.095882 0,0 -9.663681,0.398502 -15.840467,4.881653 0,0 9.862932,-3.785772 24.906394,-1.295133 15.043462,2.49064 16.338594,0.896631 16.338594,0.896631 0,0 -9.564055,9.165553 -60.970852,7.272667 0,0 36.662212,6.07716 53.100432,2.092137 16.43822,-3.985023 18.729608,-8.169297 19.725864,-14.545334 0,0 -10.062183,3.686146 -21.020997,-0.199252 C 57.782834,43.934879 30.784303,34.868952 30.784303,34.868952 c 0,0 -13.05095,-4.682402 -27.9947869,-4.881654 -14.9438361,-0.199251 -21.9901471,-0.152978 -25.4770421,0.444775 -3.486895,0.597753 -4.607368,0.946603 -12.281051,4.735755 -9.922048,4.899362 -30.094004,15.915919 -30.094004,15.915919"
         transform="matrix(0.52121383,0,0,0.52121383,313.00755,21.93693)" /><path
         style="font-size:48.6091px;line-height:1.2;font-family:Aeros;-inkscape-font-specification:Aeros;white-space:pre;inline-size:512.119;fill:#ffffff;fill-opacity:1;stroke-width:3.41556"
         d="m 245.5026,68.33629 c -0.52238,0 -0.95556,-0.14627 -1.2995,-0.43877 -0.34395,-0.29238 -0.55753,-0.68934 -0.64074,-1.19073 -0.0832,-0.50153 -0.0192,-1.04988 0.19223,-1.6453 0.31891,-0.89835 0.87598,-1.66609 1.67121,-2.30335 0.80458,-0.63727 1.60332,-0.95582 2.39623,-0.95582 h 9.65508 c 0.0839,0 0.10931,0.0469 0.076,0.14086 l -0.64521,1.81761 c -0.0334,0.0939 -0.0921,0.14088 -0.17601,0.14088 h -9.65508 c -0.28917,0 -0.57718,0.11519 -0.86398,0.34473 -0.2868,0.22978 -0.48768,0.50665 -0.60264,0.83049 -0.11112,0.31342 -0.10496,0.58503 0.0185,0.81481 0.12374,0.22978 0.33006,0.34474 0.61923,0.34474 h 7.08039 c 0.80227,0 1.37297,0.32383 1.71209,0.97147 0.3522,0.63714 0.36883,1.40501 0.0499,2.30335 -0.3189,0.89835 -0.88064,1.66608 -1.68521,2.30334 -0.79524,0.63713 -1.59399,0.95587 -2.39625,0.95587 h -9.65505 c -0.0839,0 -0.1093,-0.0469 -0.0759,-0.14087 l 0.64519,-1.81764 c 0.0334,-0.0939 0.0921,-0.14087 0.176,-0.14087 h 9.66908 c 0.28917,0 0.57251,-0.1152 0.84998,-0.3446 0.28681,-0.22992 0.48584,-0.50153 0.59708,-0.81483 0.11491,-0.32384 0.11057,-0.6007 -0.0126,-0.83048 -0.11421,-0.22978 -0.31609,-0.34475 -0.60526,-0.34475 z m 22.03894,-6.18924 2.88942,10.62368 h -2.09892 c -0.0467,0 -0.0821,0 -0.10636,-0.0157 -0.0242,-0.014 -0.0448,-0.0312 -0.0617,-0.0626 -0.0168,-0.0312 -0.0329,-0.0525 -0.0476,-0.0626 -10e-4,-0.0213 -0.007,-0.0569 -0.017,-0.10945 -0.01,-0.0527 -0.0216,-0.0839 -0.0367,-0.0939 l -0.50237,-1.896 h -8.74554 l -1.86241,1.896 c -0.0126,0.014 -0.0429,0.0413 -0.0894,0.0939 -0.0465,0.0525 -0.083,0.0881 -0.10888,0.10945 -0.0126,0.014 -0.0391,0.0312 -0.0782,0.0626 -0.0391,0.0312 -0.0792,0.0525 -0.1201,0.0626 -0.0317,0.014 -0.0661,0.0157 -0.10342,0.0157 h -2.11293 l 10.43178,-10.62368 c 0.23083,-0.22978 0.39757,-0.34473 0.50017,-0.34473 h 2.02898 c 0.10272,0 0.18309,0.11519 0.24144,0.34473 z m -6.66618,6.2833 h 6.11488 l -1.33458,-4.87303 -0.41049,0.40734 z m 21.57259,4.30906 h -0.014 l 0.006,-0.0156 -5.99867,-8.13223 -2.85342,8.03832 c -0.0332,0.0939 -0.0921,0.14087 -0.17599,0.14087 h -1.62319 c -0.0839,0 -0.10931,-0.0469 -0.0758,-0.14087 l 3.79343,-10.68642 c 0.0332,-0.0939 0.0921,-0.14086 0.17598,-0.14086 h 1.62317 c 0.028,0 0.0504,0.0156 0.0673,0.0469 h 0.014 l 5.97913,8.148 2.85898,-8.05396 c 0.0332,-0.0939 0.0921,-0.14087 0.17601,-0.14087 h 1.62316 c 0.0839,0 0.1093,0.047 0.0758,0.14087 l -3.79343,10.68643 c -0.0332,0.0939 -0.0919,0.14086 -0.176,0.14086 h -1.62319 c -0.028,0 -0.0476,-0.014 -0.0589,-0.0312 z m 10.8802,-11.04096 c 0.87945,0.0199 3.16054,-0.13103 6.29988,0 2.75277,0.11379 2.79732,1.80707 2.53531,3.17352 -1.08662,5.66665 -1.80079,8.0204 -6.19521,8.00262 l -6.37775,-0.0257 c -1.11954,0 -2.9008,-0.85683 -2.51909,-3.16771 0.43312,-2.04057 1.00222,-3.2616 1.23,-4.2897 0.68373,-3.08615 2.79846,-3.74462 5.02686,-3.69269 z m 2.63241,8.97248 c 2.69805,0.0285 2.43921,-0.8161 3.27401,-3.55097 0.65973,-2.16135 1.02258,-3.3212 -1.31436,-3.22431 -2.40461,0 -2.8183,-0.0668 -4.03295,-0.0612 -2.50857,0.014 -2.89198,-0.18596 -3.56119,2.74225 -0.55744,2.43908 -1.57051,4.01823 0.68468,4.04185 z"
         id="text2-15-1-5-7-2"
         aria-label="SANO"
         sodipodi:nodetypes="sssscssssssssssscscsssssscscssccssscsccccssscsccsscccccccsccssssssscccsssssssscssssscssssscsssss" /><path
         d="m -513.20761,-136.8695 h 13.65916 13.70777 c 0.29165,0 0.43748,0.14583 0.43748,0.43748 v 5.63866 c 0,0.29165 -0.14583,0.43748 -0.43748,0.43748 h -27.36693 c -1.87955,0 -3.62948,0.46989 -5.24978,1.40966 -1.62031,0.93978 -2.90035,2.21982 -3.84012,3.84012 -0.93977,1.5879 -1.40966,3.33783 -1.40966,5.24978 0,2.88414 1.02079,5.36321 3.06237,7.4372 2.07399,2.04158 4.55305,3.06237 7.43719,3.06237 h 27.36693 c 0.29165,0 0.43748,0.14583 0.43748,0.43748 v 5.63866 c 0,0.29165 -0.14583,0.43748 -0.43748,0.43748 h -27.36693 c -3.07857,0 -5.93031,-0.76154 -8.5552,-2.28463 -2.59249,-1.52309 -4.65027,-3.58087 -6.17336,-6.17336 -1.52308,-2.62489 -2.28462,-5.47662 -2.28462,-8.5552 0,-3.07857 0.76154,-5.9141 2.28462,-8.50659 1.52309,-2.62489 3.58087,-4.69888 6.17336,-6.22196 2.62489,-1.52309 5.47663,-2.28463 8.5552,-2.28463 z m 63.04602,1.0694 23.13793,32.95697 h -7.29137 c -0.16203,0 -0.29165,-0.0162 -0.38887,-0.0486 -0.0972,-0.0324 -0.19444,-0.0972 -0.29165,-0.19444 -0.0972,-0.0972 -0.17824,-0.16202 -0.24305,-0.19443 -0.0324,-0.0648 -0.0972,-0.17822 -0.19444,-0.34027 -0.0972,-0.16203 -0.17823,-0.25924 -0.24304,-0.29165 l -4.08317,-5.8817 h -30.38068 l -4.13178,5.8817 c -0.0324,0.0324 -0.0972,0.12962 -0.19443,0.29165 -0.0972,0.16203 -0.17824,0.27546 -0.24305,0.34027 -0.0324,0.0324 -0.0972,0.0972 -0.19444,0.19443 -0.0972,0.0972 -0.21063,0.16203 -0.34026,0.19444 -0.0972,0.0324 -0.21064,0.0486 -0.34026,0.0486 h -7.33998 l 23.13793,-32.95697 c 0.5185,-0.71293 0.95718,-1.06643 1.31245,-1.0694 l 6.53717,-0.0546 c 0.35527,-0.003 1.2889,0.41111 1.77499,1.12404 z m -15.40909,19.49225 h 21.24218 l -10.64539,-15.11743 -0.92358,1.26383 z m 76.80237,-0.14583 9.52738,13.61055 h -7.33997 c -0.12963,0 -0.25925,-0.0162 -0.38887,-0.0486 -0.0972,-0.0324 -0.19444,-0.0972 -0.29166,-0.19444 -0.0972,-0.0972 -0.17823,-0.16202 -0.24304,-0.19443 -0.0324,-0.0648 -0.0972,-0.17822 -0.19444,-0.34027 -0.0972,-0.16203 -0.16203,-0.25924 -0.19444,-0.29165 -0.84255,-1.19903 -1.74992,-2.49527 -2.72211,-3.88873 -0.97218,-1.39346 -2.00917,-2.88414 -3.11098,-4.47204 -1.10181,-1.58789 -1.99297,-2.86793 -2.6735,-3.84012 l -0.34026,-0.48609 h -19.44364 v 13.3189 c 0,0.29165 -0.14583,0.43748 -0.43748,0.43748 h -5.63866 c -0.29165,0 -0.43748,-0.14583 -0.43748,-0.43748 v -9.67321 -9.72182 -13.75638 c 0,-0.29165 0.14583,-0.43748 0.43748,-0.43748 h 34.26942 c 1.84715,0 3.54846,0.45368 5.10395,1.36105 1.55549,0.90737 2.78692,2.1388 3.69429,3.69429 0.90737,1.55549 1.36106,3.24061 1.36106,5.05535 0,1.29624 -0.24305,2.52767 -0.72914,3.69429 -0.45369,1.16662 -1.0856,2.20361 -1.89575,3.11098 -0.81015,0.87497 -1.78234,1.62031 -2.91655,2.23602 -1.10181,0.58331 -2.26842,0.93978 -3.49985,1.0694 z m -27.41553,-13.9022 v 7.24275 h 28.24189 c 1.00459,0 1.86335,-0.35647 2.57628,-1.0694 0.71293,-0.71293 1.0694,-1.55549 1.0694,-2.52767 0,-1.00459 -0.35647,-1.86335 -1.0694,-2.57628 -0.71293,-0.71293 -1.57169,-1.0694 -2.57628,-1.0694 z m 53.08114,13.75637 c -1.81474,0 -3.49985,-0.45368 -5.05534,-1.36105 -1.55549,-0.90737 -2.78693,-2.1388 -3.6943,-3.69429 -0.90737,-1.55549 -1.36105,-3.25681 -1.36105,-5.10396 0,-2.78692 0.98838,-5.16877 2.96515,-7.14554 2.00918,-1.97677 4.39103,-2.96515 7.14554,-2.96515 h 33.54028 c 0.29165,0 0.43748,0.14583 0.43748,0.43748 v 5.63866 c 0,0.29165 -0.14583,0.43748 -0.43748,0.43748 h -33.54028 c -1.00459,0 -1.86335,0.35647 -2.57628,1.0694 -0.71293,0.71293 -1.0694,1.57169 -1.0694,2.57628 0,0.97218 0.35647,1.81474 1.0694,2.52767 0.71293,0.71293 1.57169,1.0694 2.57628,1.0694 h 24.59621 c 2.78692,0 5.16876,1.00459 7.14553,3.01377 2.00918,1.97677 3.01377,4.35861 3.01377,7.14554 0,2.78692 -1.00459,5.16876 -3.01377,7.14553 -1.97677,1.97677 -4.35861,2.96516 -7.14553,2.96516 h -33.54028 c -0.29165,0 -0.43748,-0.14583 -0.43748,-0.43748 v -5.63866 c 0,-0.29165 0.14583,-0.43748 0.43748,-0.43748 h 33.58889 c 1.00459,0 1.84714,-0.35647 2.52767,-1.0694 0.71293,-0.71293 1.0694,-1.55549 1.0694,-2.52767 0,-1.00459 -0.35647,-1.86336 -1.0694,-2.57629 -0.68053,-0.71293 -1.52308,-1.0694 -2.52767,-1.0694 z"
         id="text2-9-8-7-9-9-0"
         style="font-size:48.6091px;line-height:1.2;font-family:Aeros;-inkscape-font-specification:Aeros;white-space:pre;inline-size:512.119;fill:url(#linearGradient3);fill-opacity:1;stroke-width:11.2126"
         transform="matrix(0.28786493,0,-0.11442743,0.32234775,442.7608,106.00928)"
         aria-label="CARS"
         sodipodi:nodetypes="scsssssscscssssssccsccsccssscsccccssscsccssccccccccscscscsssccssssccsssssscccccccssssscsssscssssssssssscscsssssscscss" /></g></g></svg>
